<svg xmlns:dc="http://purl.org/dc/elements/1.1/" xmlns:cc="http://creativecommons.org/ns#" xmlns:rdf="http://www.w3.org/1999/02/22-rdf-syntax-ns#" xmlns:svg="http://www.w3.org/2000/svg" xmlns="http://www.w3.org/2000/svg" xmlns:xlink="http://www.w3.org/1999/xlink" id="svg15574" viewBox="0 0 1024 768" height="768px" width="1024px" version="1.1">
  <metadata id="metadata15580">
    <rdf:rdf>
      <cc:work rdf:about="">
        <dc:format>image/svg+xml</dc:format>
        <dc:type rdf:resource="http://purl.org/dc/dcmitype/StillImage"></dc:type>
      </cc:work>
    </rdf:rdf>
  </metadata>
  <defs id="defs15578"></defs>
  <linearGradient spreadMethod="pad" y2="30%" x2="-10%" y1="120%" x1="30%" id="3d_gradient2-logo-413bfcb4-f250-477b-9942-a24254e77b55">
    <stop id="stop15555" stop-opacity="1" stop-color="#ffffff" offset="0%"></stop>
    <stop id="stop15557" stop-opacity="1" stop-color="#000000" offset="100%"></stop>
  </linearGradient>
  <linearGradient gradientTransform="rotate(-30)" spreadMethod="pad" y2="30%" x2="-10%" y1="120%" x1="30%" id="3d_gradient3-logo-413bfcb4-f250-477b-9942-a24254e77b55">
    <stop id="stop15560" stop-opacity="1" stop-color="#ffffff" offset="0%"></stop>
    <stop id="stop15562" stop-opacity="1" stop-color="#cccccc" offset="50%"></stop>
    <stop id="stop15564" stop-opacity="1" stop-color="#000000" offset="100%"></stop>
  </linearGradient>
  <g id="logo-group">
    <image xlink:href="" id="container" x="272" y="144" width="480" height="480" style="display: none;" transform="translate(0 0)"></image>
    <g id="logo-center" transform="translate(1.1368683772161603e-13 0)">
      <image xlink:href="" id="icon_container" style="display: none;" x="0" y="0"></image>
      <g id="slogan" style="font-style:normal;font-weight:300;font-size:32px;line-height:1;font-family:Maitree;font-variant-ligatures:none;text-align:center;text-anchor:middle" transform="translate(0 0)"></g>
      <g id="title" style="font-style:normal;font-weight:normal;font-size:72px;line-height:1;font-family:'Brandmark Serif 2';font-variant-ligatures:normal;text-align:center;text-anchor:middle" transform="translate(0 0)">
        <path id="path15583" style="font-style:normal;font-weight:normal;font-size:72px;line-height:1;font-family:'Brandmark Serif 2';font-variant-ligatures:normal;text-align:center;text-anchor:middle" d="m 328.75437,0 h 19.944 v -0.144 c -4.428,-0.576 -6.66,-4.428 -8.712,-9.612 l -11.62799,-29.592 c -3.42001,-8.676 -7.81201,-13.212 -16.92001,-12.816 v 0.144 c 2.952,0.288 6.33601,8.604 10.116,19.728 l 2.736,8.064 c 1.764,5.508 -1.044,5.508 -6.33599,5.508 h -5.976 v 0.144 c 8.31599,0.72 14.904,2.484 18.32399,11.916 1.332,3.672 1.908,6.048 -1.548,6.516 z m -37.62,-17.892 c 7.05601,0.72 14.76001,-3.96 14.76001,-11.34 0,-4.968 -3.45601,-10.368 -3.45601,-16.092 0,-3.924 1.65601,-6.3 6.12,-6.66 v -0.144 c -8.424,-0.144 -14.328,3.528 -14.328,12.168 0,6.156 2.952,11.124 2.952,15.876 0,4.032 -2.16,5.76 -6.048,6.048 z M 294.12237,0 h 19.548 v -0.144 c -6.66,-1.728 -10.90799,-6.444 -2.7,-30.024 l -0.144,-0.072 c -8.24399,20.412 -10.8,28.836 -16.704,30.096 z" stroke-width="0" stroke-linejoin="miter" stroke-miterlimit="2" fill="#b57a4c" stroke="#b57a4c" transform="translate(0 305.416) translate(291.1083234999999 54.620102) scale(1) translate(-291.13437 52.187898)"></path>
        <path id="path15585" style="font-style:normal;font-weight:normal;font-size:72px;line-height:1;font-family:'Brandmark Serif 2';font-variant-ligatures:normal;text-align:center;text-anchor:middle" d="m 381.383,-34.812 0.144,-0.072 c -0.648,-7.884 0.036,-13.932 0.864,-17.712 l -0.144,-0.072 c -2.772,0.54 -10.368,0.756 -17.784,0.468 v 0.144 c 9.54,0.648 13.68,8.82 16.92,17.244 z M 345.455,0 h 15.444 v -0.144 c -1.44,-0.36 -1.692,-1.836 -1.692,-5.076 v -41.76 c 0,-3.24 0.252,-4.716 1.692,-5.076 V -52.2 h -15.444 v 0.144 c 2.88,0.72 4.572,2.916 4.572,6.516 v 38.88 c 0,3.6 -1.692,5.796 -4.572,6.516 z m 31.14,-17.568 0.144,-0.072 c -0.72,-6.66 -0.54,-13.284 0.36,-19.872 l -0.144,-0.072 c -2.376,7.776 -5.508,8.856 -14.148,9.936 v 0.144 c 8.28,1.08 11.412,2.16 13.788,9.936 z m 5.292,17.892 0.144,-0.072 c -0.36,-3.78 -0.684,-10.548 0.936,-22.752 l -0.144,-0.072 c -3.24,12.744 -8.784,21.78 -18.36,22.428 V 0 c 7.416,-0.288 14.652,-0.216 17.424,0.324 z" stroke-width="0" stroke-linejoin="miter" stroke-miterlimit="2" fill="#aa744a" stroke="#aa744a" transform="translate(0 305.416) translate(345.4289534999999 54.14) scale(1) translate(-345.455 52.668)"></path>
        <path id="path15587" style="font-style:normal;font-weight:normal;font-size:72px;line-height:1;font-family:'Brandmark Serif 2';font-variant-ligatures:normal;text-align:center;text-anchor:middle" d="m 433.01037,-2.7 c -0.792,0.36 -1.62,0.576 -2.48399,0.576 -2.84401,0 -4.06801,-2.772 -7.12801,-11.412 -2.52,-7.092 -5.868,-11.268 -16.236,-12.276 13.5,-0.216 18.072,-5.868 18.072,-13.572 0,-8.712 -5.76,-13.176 -17.49599,-12.816 v 0.144 c 4.428,0.288 7.09199,5.904 7.09199,13.248 0,5.652 -1.476,12.744 -11.66399,12.744 v 0.144 c 6.83999,1.62 8.13599,5.76 9.93599,12.6 2.592,9.864 5.18401,13.608 11.23201,13.608 3.31199,0 6.69599,-1.188 8.784,-2.844 z m -33.444,-3.96 v -38.88 c 0,-3.6 1.692,-5.796 4.572,-6.516 V -52.2 h -18.324 v 0.144 c 2.88,0.72 4.572,2.916 4.572,6.516 v 38.88 c 0,3.6 -1.692,5.796 -4.572,6.516 V 0 h 19.04401 v -0.144 c -3.24,-0.72 -5.29201,-2.916 -5.29201,-6.516 z" stroke-width="0" stroke-linejoin="miter" stroke-miterlimit="2" fill="#a06e47" stroke="#a06e47" transform="translate(0 305.416) translate(385.78832349999993 54.587821) scale(1) translate(-385.81437 52.220179)"></path>
        <path id="path15589" style="font-style:normal;font-weight:normal;font-size:72px;line-height:1;font-family:'Brandmark Serif 2';font-variant-ligatures:normal;text-align:center;text-anchor:middle" d="M 453.42125,0.288 V 0.144 c -6.696,-0.756 -12.888,-9.612 -13.14,-26.568 -0.252,-16.164 6.3,-25.128 12.816,-26.1 v -0.144 c -12.708,0.756 -24.048,10.404 -23.796,27.18 0.252,16.848 11.376,25.308 24.12,25.776 z m 4.32,0 c 13.068,-0.792 24.048,-10.368 23.76,-27.252 -0.288,-16.776 -11.34,-25.2 -24.084,-25.704 v 0.144 c 6.696,1.116 12.888,9.972 13.14,26.532 0.252,16.236 -5.976,25.128 -12.816,26.136 z" stroke-width="0" stroke-linejoin="miter" stroke-miterlimit="2" fill="#956745" stroke="#956745" transform="translate(0 305.416) translate(429.2710834999999 54.14) scale(1) translate(-429.29713 52.668)"></path>
        <path id="path15591" style="font-style:normal;font-weight:normal;font-size:72px;line-height:1;font-family:'Brandmark Serif 2';font-variant-ligatures:normal;text-align:center;text-anchor:middle" d="m 504.65937,0.36 h 0.14401 l 7.92,-21.636 -0.144,-0.072 c -2.23201,5.148 -5.36401,5.112 -7.38,0.396 l -8.67601,-20.376 c -2.26799,-5.364 -4.104,-10.188 1.764,-10.728 V -52.2 h -20.808 v 0.144 c 3.34801,0.576 5.292,4.464 7.632,9.612 z m 11.268,-30.78 c 4.5,-11.412 7.27201,-20.376 13.17601,-21.636 V -52.2 h -19.548 v 0.144 c 6.73199,0.648 10.836,6.984 6.22799,21.564 z" stroke-width="0" stroke-linejoin="miter" stroke-miterlimit="2" fill="#8a6143" stroke="#8a6143" transform="translate(0 305.416) translate(477.45332349999995 54.608) scale(1) translate(-477.47937 52.2)"></path>
        <path id="path15593" style="font-style:normal;font-weight:normal;font-size:72px;line-height:1;font-family:'Brandmark Serif 2';font-variant-ligatures:normal;text-align:center;text-anchor:middle" d="m 527.28313,0 h 18.32399 v -0.144 c -2.88,-0.72 -4.572,-2.916 -4.572,-6.516 v -38.88 c 0,-3.6 1.692,-5.796 4.572,-6.516 V -52.2 h -18.32399 v 0.144 c 2.88,0.72 4.572,2.916 4.572,6.516 v 38.88 c 0,3.6 -1.692,5.796 -4.572,6.516 z" stroke-width="0" stroke-linejoin="miter" stroke-miterlimit="2" fill="#805b40" stroke="#805b40" transform="translate(0 305.416) translate(527.2570834999999 54.608) scale(1) translate(-527.28313 52.2)"></path>
        <path id="path15595" style="font-style:normal;font-weight:normal;font-size:72px;line-height:1;font-family:'Brandmark Serif 2';font-variant-ligatures:normal;text-align:center;text-anchor:middle" d="m 581.22238,-33.552 0.14399,-0.072 c -1.00799,-7.164 -1.76399,-15.228 -0.93599,-19.008 l -0.144,-0.072 c -4.93201,3.06 -7.452,0.756 -12.96001,0.432 l -0.036,0.144 c 5.93999,1.368 10.22399,9.216 13.932,18.576 z m -13.53601,33.84 c 5.904,0.396 14.328,-2.808 14.328,-12.492 0,-6.804 -4.5,-12.348 -12.168,-18 -7.992,-5.904 -13.46399,-9.756 -13.46399,-15.588 0,-4.644 3.63599,-6.696 6.696,-6.516 l 0.036,-0.144 c -5.148,-0.396 -14.292,2.376 -14.292,11.952 0,7.488 5.724,12.996 12.6,17.964 8.89201,6.444 12.67201,10.476 12.67201,15.732 0,5.004 -3.276,6.732 -6.372,6.948 z m -18.288,0.036 c 4.932,-3.06 7.452,-0.612 13.68001,-0.18 L 563.11437,0 c -6.65999,-1.476 -11.30399,-9.324 -15.01199,-18.684 l -0.144,0.072 c 1.00799,7.164 2.12399,15.084 1.29599,18.864 z" stroke-width="0" stroke-linejoin="miter" stroke-miterlimit="2" fill="#75553e" stroke="#75553e" transform="translate(0 305.416) translate(547.9323334999999 54.104) scale(1) translate(-547.95838 52.704)"></path>
        <path id="path15597" style="font-style:normal;font-weight:normal;font-size:72px;line-height:1;font-family:'Brandmark Serif 2';font-variant-ligatures:normal;text-align:center;text-anchor:middle" d="m 584.65813,0 h 18.32399 v -0.144 c -2.88,-0.72 -4.572,-2.916 -4.572,-6.516 v -38.88 c 0,-3.6 1.692,-5.796 4.572,-6.516 V -52.2 h -18.32399 v 0.144 c 2.88,0.72 4.572,2.916 4.572,6.516 v 38.88 c 0,3.6 -1.692,5.796 -4.572,6.516 z" stroke-width="0" stroke-linejoin="miter" stroke-miterlimit="2" fill="#6a4e3c" stroke="#6a4e3c" transform="translate(0 305.416) translate(584.6320834999999 54.608) scale(1) translate(-584.65813 52.2)"></path>
        <path id="path15599" style="font-style:normal;font-weight:normal;font-size:72px;line-height:1;font-family:'Brandmark Serif 2';font-variant-ligatures:normal;text-align:center;text-anchor:middle" d="M 630.74937,0.288 V 0.144 c -6.696,-0.756 -12.888,-9.612 -13.14,-26.568 -0.25199,-16.164 6.3,-25.128 12.81601,-26.1 v -0.144 c -12.70801,0.756 -24.048,10.404 -23.79601,27.18 0.25201,16.848 11.376,25.308 24.12,25.776 z m 4.32001,0 c 13.068,-0.792 24.048,-10.368 23.76,-27.252 -0.288,-16.776 -11.34001,-25.2 -24.08401,-25.704 v 0.144 c 6.696,1.116 12.888,9.972 13.14,26.532 0.25201,16.236 -5.976,25.128 -12.81599,26.136 z" stroke-width="0" stroke-linejoin="miter" stroke-miterlimit="2" fill="#604839" stroke="#604839" transform="translate(0 305.416) translate(606.5992034999999 54.14) scale(1) translate(-606.62525 52.668)"></path>
        <path id="path15601" style="font-style:normal;font-weight:normal;font-size:72px;line-height:1;font-family:'Brandmark Serif 2';font-variant-ligatures:normal;text-align:center;text-anchor:middle" d="m 704.51787,-34.38 h 0.144 c 0.612,-7.416 3.16801,-11.232 8.136,-11.232 3.96001,0 7.05601,2.376 11.01601,2.376 6.15599,0 9.468,-5.652 9.07199,-13.572 h -0.14399 c -0.68401,3.312 -3.56401,5.256 -7.45201,5.256 -4.03199,0 -7.416,-2.088 -10.944,-2.088 -7.05599,0 -9.612,8.46 -9.828,19.26 z m -1.72799,34.74 h 0.14399 l 0.72,-21.708 h -0.144 c -0.71999,2.736 -2.48399,3.024 -4.24799,0.792 L 677.73387,-47.88 c -2.37599,-3.024 -3.096,-4.32 -6.3,-4.32 h -12.492 v 0.144 c 3.96001,0.72 6.91201,5.004 10.51201,9.612 z M 658.47388,0 h 18.32399 v -0.144 c -5.832,-0.9 -8.53199,-6.624 -9.10799,-34.56 h -0.144 c -0.57601,27.936 -3.24,33.66 -9.072,34.56 z" stroke-width="0" stroke-linejoin="miter" stroke-miterlimit="2" fill="#554237" stroke="#554237" transform="translate(0 305.416) translate(658.4478334999999 50) scale(1) translate(-658.47388 56.808)"></path>
      </g>
      <image xlink:href="" id="icon" style="display: none;" x="0" y="0"></image>
    </g>
  </g>
</svg>